<svg width="35" height="35" viewBox="0 0 35 35" fill="none" xmlns="http://www.w3.org/2000/svg">
<path d="M17.504 20.888L17.6 19.688C20.576 19.52 22.808 17.528 22.808 14.72C22.808 11.768 20.672 9.848 17.048 9.848C13.856 9.848 11.816 11.6 11.288 14.192L14.168 15.056C14.48 13.616 15.488 12.992 16.856 12.992C18.2 12.992 18.92 13.616 18.92 14.864C18.92 16.256 18.032 17.216 14.72 17.216V20.888H17.504ZM16.064 26.312C17.24 26.312 18.2 25.376 18.2 24.176C18.2 22.976 17.24 22.04 16.064 22.04C14.888 22.04 13.928 22.976 13.928 24.176C13.928 25.376 14.888 26.312 16.064 26.312Z" fill="white"/>
<circle cx="17.5" cy="17.5" r="16" stroke="white" stroke-width="3"/>
</svg>
