<svg width="408" height="292" viewBox="0 0 408 292" fill="none" xmlns="http://www.w3.org/2000/svg">
<path d="M312.603 43.6966C334.744 60.1746 361.08 73.458 368.628 93.6352C376.177 113.644 364.77 140.379 347.66 158.034C330.551 175.521 307.738 183.76 282.577 198.388C257.416 213.017 229.906 234.035 209.609 229.327C189.48 224.451 176.396 193.849 162.138 165.769C147.88 137.521 132.448 111.626 134.126 86.5731C135.635 61.3516 154.422 36.9709 177.403 20.661C200.383 4.18293 227.725 -3.88795 250.203 1.82892C272.848 7.54579 290.461 27.2186 312.603 43.6966Z" fill="#D95D71"/>
<path d="M196 108.36C198.375 108.36 200.3 105.817 200.3 102.68C200.3 99.543 198.375 97 196 97C193.625 97 191.7 99.543 191.7 102.68C191.7 105.817 193.625 108.36 196 108.36Z" fill="black"/>
<path d="M237.72 108.36C240.095 108.36 242.02 105.817 242.02 102.68C242.02 99.543 240.095 97 237.72 97C235.346 97 233.42 99.543 233.42 102.68C233.42 105.817 235.346 108.36 237.72 108.36Z" fill="black"/>
<path d="M210.28 113.25C212.535 114.695 215.157 115.464 217.835 115.464C220.513 115.464 223.135 114.695 225.39 113.25" stroke="black" stroke-width="3" stroke-miterlimit="10" stroke-linecap="round"/>
<g style="mix-blend-mode:multiply">
<path d="M185.15 129.5C193.517 129.5 200.3 122.717 200.3 114.35C200.3 105.983 193.517 99.2002 185.15 99.2002C176.783 99.2002 170 105.983 170 114.35C170 122.717 176.783 129.5 185.15 129.5Z" fill="#EBE0FF"/>
</g>
<g style="mix-blend-mode:multiply">
<path d="M250.52 129.5C258.887 129.5 265.67 122.717 265.67 114.35C265.67 105.983 258.887 99.2002 250.52 99.2002C242.153 99.2002 235.37 105.983 235.37 114.35C235.37 122.717 242.153 129.5 250.52 129.5Z" fill="#EBE0FF"/>
</g>
<path d="M424.132 136.442C442.671 148.96 449.906 177.765 451.413 204.912C452.769 231.907 448.398 257.244 435.436 275.794C422.474 294.193 401.072 305.806 377.71 315.609C354.498 325.412 329.478 333.405 305.815 328.579C282.302 323.904 259.995 306.409 242.512 282.882C225.028 259.355 212.367 229.796 217.944 204.459C223.521 179.123 247.485 158.009 272.053 146.547C296.47 135.085 321.339 133.275 348.771 130.41C376.052 127.695 405.593 123.925 424.132 136.442Z" fill="#F09065"/>
<path d="M290.283 189.952C292.381 189.952 294.082 187.705 294.082 184.933C294.082 182.161 292.381 179.914 290.283 179.914C288.184 179.914 286.483 182.161 286.483 184.933C286.483 187.705 288.184 189.952 290.283 189.952Z" fill="black"/>
<path d="M327.147 189.952C329.245 189.952 330.946 187.705 330.946 184.933C330.946 182.161 329.245 179.914 327.147 179.914C325.048 179.914 323.347 182.161 323.347 184.933C323.347 187.705 325.048 189.952 327.147 189.952Z" fill="black"/>
<path d="M302.9 194.272C304.893 195.55 307.21 196.228 309.576 196.228C311.942 196.228 314.259 195.55 316.252 194.272" stroke="black" stroke-width="3" stroke-miterlimit="10" stroke-linecap="round"/>
<g style="mix-blend-mode:multiply">
<path d="M280.695 208.632C288.088 208.632 294.082 202.639 294.082 195.246C294.082 187.853 288.088 181.859 280.695 181.859C273.302 181.859 267.309 187.853 267.309 195.246C267.309 202.639 273.302 208.632 280.695 208.632Z" fill="#EBE0FF"/>
</g>
<g style="mix-blend-mode:multiply">
<path d="M338.456 208.631C345.849 208.631 351.842 202.638 351.842 195.245C351.842 187.852 345.849 181.858 338.456 181.858C331.063 181.858 325.069 187.852 325.069 195.245C325.069 202.638 331.063 208.631 338.456 208.631Z" fill="#EBE0FF"/>
</g>
<path d="M217.397 190.819C240.246 221.803 257.22 248.222 259.505 274.966C261.79 302.037 249.386 329.434 235.024 356.831C220.661 384.228 204.34 411.298 173.983 438.695C143.953 465.766 99.8867 493.163 63.9808 485.335C28.4013 477.834 0.329377 435.76 0.00295933 396.295C-0.323458 357.157 26.4428 320.628 35.9089 283.772C45.7014 246.591 37.8674 209.41 51.9033 176.794C65.9393 144.179 101.192 116.456 133.508 120.37C165.497 124.284 194.548 159.834 217.397 190.819Z" fill="#9567EF"/>
<path d="M135.192 191.658C137.29 191.658 138.991 189.411 138.991 186.639C138.991 183.867 137.29 181.62 135.192 181.62C133.093 181.62 131.392 183.867 131.392 186.639C131.392 189.411 133.093 191.658 135.192 191.658Z" fill="black"/>
<path d="M172.054 191.658C174.153 191.658 175.854 189.411 175.854 186.639C175.854 183.867 174.153 181.62 172.054 181.62C169.956 181.62 168.255 183.867 168.255 186.639C168.255 189.411 169.956 191.658 172.054 191.658Z" fill="black"/>
<path d="M147.81 195.979C149.802 197.257 152.119 197.935 154.485 197.935C156.852 197.935 159.168 197.257 161.161 195.979" stroke="black" stroke-width="3" stroke-miterlimit="10" stroke-linecap="round"/>
<g style="mix-blend-mode:multiply">
<path d="M125.604 210.337C132.997 210.337 138.99 204.344 138.99 196.951C138.99 189.558 132.997 183.564 125.604 183.564C118.211 183.564 112.217 189.558 112.217 196.951C112.217 204.344 118.211 210.337 125.604 210.337Z" fill="#EBE0FF"/>
</g>
<g style="mix-blend-mode:multiply">
<path d="M183.365 210.337C190.758 210.337 196.752 204.344 196.752 196.951C196.752 189.558 190.758 183.564 183.365 183.564C175.972 183.564 169.979 189.558 169.979 196.951C169.979 204.344 175.972 210.337 183.365 210.337Z" fill="#EBE0FF"/>
</g>
</svg>
