<svg width="320" height="320" viewBox="0 0 320 320" fill="none" xmlns="http://www.w3.org/2000/svg">
<rect width="320" height="320" fill="#F09065"/>
<g style="mix-blend-mode:multiply">
<path d="M154.823 10.5548C157.464 7.21072 162.536 7.21073 165.177 10.5548L200.101 54.778C201.521 56.5759 203.772 57.5083 206.047 57.241L262.013 50.6659C266.245 50.1687 269.831 53.7546 269.334 57.9867L262.759 113.953C262.492 116.228 263.424 118.479 265.222 119.899L309.445 154.823C312.789 157.464 312.789 162.536 309.445 165.177L265.222 200.101C263.424 201.521 262.492 203.772 262.759 206.047L269.334 262.013C269.831 266.245 266.245 269.831 262.013 269.334L206.047 262.759C203.772 262.492 201.521 263.424 200.101 265.222L165.177 309.445C162.536 312.789 157.464 312.789 154.823 309.445L119.899 265.222C118.479 263.424 116.228 262.492 113.953 262.759L57.9867 269.334C53.7546 269.831 50.1687 266.245 50.6659 262.013L57.241 206.047C57.5083 203.772 56.5758 201.521 54.778 200.101L10.5548 165.177C7.21072 162.536 7.21073 157.464 10.5548 154.823L54.778 119.899C56.5759 118.479 57.5083 116.228 57.241 113.953L50.6659 57.9867C50.1687 53.7546 53.7546 50.1687 57.9867 50.6659L113.953 57.241C116.228 57.5083 118.479 56.5758 119.899 54.778L154.823 10.5548Z" fill="#EBE0FF"/>
</g>
</svg>
