<svg width="515" height="308" viewBox="0 0 515 308" fill="none" xmlns="http://www.w3.org/2000/svg">
<path d="M321.204 240.955C305.684 246.495 287.675 243.689 263.923 243.176C240.386 242.586 211.106 244.289 191.062 230.667C171.018 217.045 160.208 188.097 167.623 165.281C175.037 142.464 200.528 125.71 221.612 102.388C242.696 79.0668 259.373 49.1776 280.064 45.194C300.97 41.1334 325.814 62.7629 342.984 84.337C360.37 105.834 370.005 127.06 371.951 147.507C374.043 168.024 368.301 187.692 359.026 204.611C349.675 221.314 336.792 235.269 321.204 240.955Z" fill="#EFCE67"/>
<g style="mix-blend-mode:multiply">
<path d="M270.211 122.165C276.504 122.165 281.605 117.063 281.605 110.77C281.605 104.477 276.504 99.376 270.211 99.376C263.918 99.376 258.816 104.477 258.816 110.77C258.816 117.063 263.918 122.165 270.211 122.165Z" fill="#D6B772"/>
</g>
<g style="mix-blend-mode:multiply">
<path d="M319.376 122.165C325.669 122.165 330.771 117.063 330.771 110.77C330.771 104.477 325.669 99.376 319.376 99.376C313.083 99.376 307.982 104.477 307.982 110.77C307.982 117.063 313.083 122.165 319.376 122.165Z" fill="#D6B772"/>
</g>
<path d="M278.371 106.269C280.157 106.269 281.605 104.356 281.605 101.997C281.605 99.6372 280.157 97.7246 278.371 97.7246C276.585 97.7246 275.137 99.6372 275.137 101.997C275.137 104.356 276.585 106.269 278.371 106.269Z" fill="black"/>
<path d="M309.75 106.267C311.536 106.267 312.984 104.354 312.984 101.995C312.984 99.6353 311.536 97.7227 309.75 97.7227C307.964 97.7227 306.516 99.6353 306.516 101.995C306.516 104.354 307.964 106.267 309.75 106.267Z" fill="black"/>
<path d="M289.112 109.944C290.808 111.031 292.78 111.609 294.794 111.609C296.808 111.609 298.78 111.031 300.476 109.944" stroke="black" stroke-width="3" stroke-miterlimit="10" stroke-linecap="round"/>
<path d="M495.917 119.606C508.773 128.287 513.791 148.264 514.836 167.09C515.777 185.812 512.746 203.383 503.756 216.247C494.767 229.007 479.924 237.061 463.722 243.859C447.625 250.658 430.274 256.201 413.863 252.854C397.557 249.612 382.086 237.479 369.961 221.163C357.836 204.847 349.056 184.347 352.923 166.776C356.791 149.205 373.411 134.562 390.449 126.613C407.382 118.665 424.629 117.41 443.653 115.422C462.572 113.54 483.06 110.925 495.917 119.606Z" fill="#F09065"/>
<g style="mix-blend-mode:multiply">
<path d="M397.438 220.462C402.565 220.462 406.722 216.305 406.722 211.178C406.722 206.051 402.565 201.895 397.438 201.895C392.311 201.895 388.154 206.051 388.154 211.178C388.154 216.305 392.311 220.462 397.438 220.462Z" fill="#D0846B"/>
</g>
<g style="mix-blend-mode:multiply">
<path d="M437.496 220.462C442.623 220.462 446.78 216.305 446.78 211.178C446.78 206.051 442.623 201.895 437.496 201.895C432.369 201.895 428.212 206.051 428.212 211.178C428.212 216.305 432.369 220.462 437.496 220.462Z" fill="#D0846B"/>
</g>
<path d="M404.087 207.507C405.542 207.507 406.722 205.949 406.722 204.026C406.722 202.104 405.542 200.546 404.087 200.546C402.631 200.546 401.452 202.104 401.452 204.026C401.452 205.949 402.631 207.507 404.087 207.507Z" fill="black"/>
<path d="M429.652 207.507C431.107 207.507 432.287 205.949 432.287 204.026C432.287 202.104 431.107 200.546 429.652 200.546C428.197 200.546 427.017 202.104 427.017 204.026C427.017 205.949 428.197 207.507 429.652 207.507Z" fill="black"/>
<path d="M412.837 210.503C414.219 211.389 415.826 211.859 417.467 211.859C419.108 211.859 420.715 211.389 422.096 210.503" stroke="black" stroke-width="3" stroke-miterlimit="10" stroke-linecap="round"/>
<path d="M198.887 182.973C194.559 203.467 189.961 219.922 179.918 230.524C169.742 241.244 154.12 246.113 137.79 250.185C121.46 254.257 104.555 257.416 82.4392 254.987C60.5746 252.574 33.5004 244.573 23.6943 227.149C13.8738 209.975 20.8201 183.347 36.7418 168.94C52.5308 154.65 77.0591 152.316 95.4623 142.832C114.116 133.364 126.394 116.731 144.727 110.638C163.06 104.546 187.079 108.846 197.177 123.396C207.157 137.813 203.216 162.479 198.887 182.973Z" fill="#9567EF"/>
<g style="mix-blend-mode:multiply">
<path d="M136.659 165.786C141.901 165.786 146.15 161.537 146.15 156.295C146.15 151.054 141.901 146.805 136.659 146.805C131.418 146.805 127.169 151.054 127.169 156.295C127.169 161.537 131.418 165.786 136.659 165.786Z" fill="#825CE7"/>
</g>
<g style="mix-blend-mode:multiply">
<path d="M177.611 165.785C182.852 165.785 187.101 161.536 187.101 156.294C187.101 151.053 182.852 146.804 177.611 146.804C172.369 146.804 168.12 151.053 168.12 156.294C168.12 161.536 172.369 165.785 177.611 165.785Z" fill="#825CE7"/>
</g>
<path d="M143.457 152.542C144.944 152.542 146.15 150.949 146.15 148.984C146.15 147.019 144.944 145.426 143.457 145.426C141.969 145.426 140.763 147.019 140.763 148.984C140.763 150.949 141.969 152.542 143.457 152.542Z" fill="black"/>
<path d="M169.592 152.542C171.08 152.542 172.286 150.949 172.286 148.984C172.286 147.019 171.08 145.426 169.592 145.426C168.104 145.426 166.898 147.019 166.898 148.984C166.898 150.949 168.104 152.542 169.592 152.542Z" fill="black"/>
<path d="M152.402 155.605C153.815 156.511 155.458 156.992 157.135 156.992C158.813 156.992 160.456 156.511 161.868 155.605" stroke="black" stroke-width="3" stroke-miterlimit="10" stroke-linecap="round"/>
<circle cx="157" cy="30" r="30" fill="white"/>
<path d="M181.499 70.8488C172.23 73.3502 163.073 62.7019 159.653 57.065L170.587 51.5246C171.133 54.8296 174.081 63.3215 181.499 70.8488Z" fill="white"/>
<path d="M142.336 19.0984C133.847 28.2344 142.706 36.355 156.033 47.2342C164.671 40.1064 179.847 27.2343 170.471 19.0984C162.425 12.1171 156.847 19.2332 156.033 25.2338C154.847 19.2332 149.266 11.6399 142.336 19.0984Z" fill="#D95D71"/>
</svg>
