<svg width="342" height="232" viewBox="0 0 342 232" fill="none" xmlns="http://www.w3.org/2000/svg">
<path d="M213.304 187.904C202.998 191.582 191.039 189.719 175.265 189.379C159.635 188.987 140.191 190.118 126.88 181.072C113.569 172.025 106.391 152.802 111.314 137.65C116.238 122.498 133.166 111.372 147.168 95.8848C161.169 80.3974 172.244 60.5486 185.984 57.9032C199.868 55.2067 216.366 69.5704 227.768 83.8972C239.313 98.173 245.712 112.269 247.004 125.847C248.394 139.472 244.58 152.533 238.421 163.768C232.211 174.861 223.656 184.128 213.304 187.904Z" fill="#D95D71"/>
<g style="mix-blend-mode:multiply">
<path d="M179.442 109.017C183.621 109.017 187.008 105.63 187.008 101.451C187.008 97.2715 183.621 93.8838 179.442 93.8838C175.263 93.8838 171.875 97.2715 171.875 101.451C171.875 105.63 175.263 109.017 179.442 109.017Z" fill="#BA5971"/>
</g>
<g style="mix-blend-mode:multiply">
<path d="M212.092 109.018C216.271 109.018 219.658 105.63 219.658 101.451C219.658 97.272 216.271 93.8843 212.092 93.8843C207.913 93.8843 204.525 97.272 204.525 101.451C204.525 105.63 207.913 109.018 212.092 109.018Z" fill="#BA5971"/>
</g>
<path d="M184.861 98.4614C186.047 98.4614 187.009 97.1913 187.009 95.6245C187.009 94.0577 186.047 92.7876 184.861 92.7876C183.675 92.7876 182.713 94.0577 182.713 95.6245C182.713 97.1913 183.675 98.4614 184.861 98.4614Z" fill="black"/>
<path d="M205.699 98.4609C206.885 98.4609 207.847 97.1908 207.847 95.624C207.847 94.0572 206.885 92.7871 205.699 92.7871C204.513 92.7871 203.551 94.0572 203.551 95.624C203.551 97.1908 204.513 98.4609 205.699 98.4609Z" fill="black"/>
<path d="M191.993 100.903C193.12 101.625 194.429 102.009 195.767 102.009C197.104 102.009 198.414 101.625 199.54 100.903" stroke="black" stroke-width="1.99223" stroke-miterlimit="10" stroke-linecap="round"/>
<path d="M329.327 107.319C337.865 113.084 341.197 126.35 341.891 138.852C342.516 151.285 340.503 162.954 334.533 171.497C328.564 179.97 318.707 185.319 307.948 189.833C297.258 194.348 285.735 198.029 274.837 195.806C264.008 193.653 253.735 185.596 245.683 174.761C237.631 163.926 231.8 150.313 234.369 138.644C236.937 126.975 247.974 117.252 259.288 111.973C270.533 106.694 281.987 105.861 294.62 104.541C307.184 103.291 320.789 101.555 329.327 107.319Z" fill="#F09065"/>
<g style="mix-blend-mode:multiply">
<path d="M263.929 174.295C267.334 174.295 270.094 171.535 270.094 168.13C270.094 164.725 267.334 161.965 263.929 161.965C260.524 161.965 257.764 164.725 257.764 168.13C257.764 171.535 260.524 174.295 263.929 174.295Z" fill="#D0846B"/>
</g>
<g style="mix-blend-mode:multiply">
<path d="M290.53 174.295C293.935 174.295 296.696 171.535 296.696 168.13C296.696 164.726 293.935 161.965 290.53 161.965C287.126 161.965 284.365 164.726 284.365 168.13C284.365 171.535 287.126 174.295 290.53 174.295Z" fill="#D0846B"/>
</g>
<path d="M268.345 165.692C269.311 165.692 270.095 164.657 270.095 163.381C270.095 162.104 269.311 161.069 268.345 161.069C267.378 161.069 266.595 162.104 266.595 163.381C266.595 164.657 267.378 165.692 268.345 165.692Z" fill="black"/>
<path d="M285.322 165.693C286.288 165.693 287.072 164.658 287.072 163.381C287.072 162.105 286.288 161.07 285.322 161.07C284.355 161.07 283.572 162.105 283.572 163.381C283.572 164.658 284.355 165.693 285.322 165.693Z" fill="black"/>
<path d="M274.156 167.682C275.073 168.27 276.14 168.582 277.23 168.582C278.32 168.582 279.387 168.27 280.304 167.682" stroke="black" stroke-width="1.99223" stroke-miterlimit="10" stroke-linecap="round"/>
<path d="M132.077 149.4C129.202 163.01 126.149 173.937 119.479 180.977C112.722 188.097 102.348 191.329 91.5035 194.034C80.6591 196.738 69.4323 198.836 54.746 197.223C40.2262 195.62 22.2468 190.307 15.7349 178.736C9.21327 167.331 13.8262 149.648 24.3994 140.08C34.8845 130.591 51.1732 129.041 63.3943 122.743C75.7819 116.455 83.9355 105.41 96.11 101.364C108.284 97.318 124.235 100.174 130.941 109.836C137.568 119.41 134.951 135.79 132.077 149.4Z" fill="#9567EF"/>
<g style="mix-blend-mode:multiply">
<path d="M90.7525 137.986C94.2333 137.986 97.0551 135.165 97.0551 131.684C97.0551 128.203 94.2333 125.381 90.7525 125.381C87.2717 125.381 84.45 128.203 84.45 131.684C84.45 135.165 87.2717 137.986 90.7525 137.986Z" fill="#825CE7"/>
</g>
<g style="mix-blend-mode:multiply">
<path d="M117.947 137.986C121.428 137.986 124.25 135.164 124.25 131.683C124.25 128.203 121.428 125.381 117.947 125.381C114.466 125.381 111.645 128.203 111.645 131.683C111.645 135.164 114.466 137.986 117.947 137.986Z" fill="#825CE7"/>
</g>
<path d="M95.2661 129.192C96.2541 129.192 97.055 128.134 97.055 126.829C97.055 125.524 96.2541 124.466 95.2661 124.466C94.2782 124.466 93.4773 125.524 93.4773 126.829C93.4773 128.134 94.2782 129.192 95.2661 129.192Z" fill="black"/>
<path d="M112.622 129.192C113.61 129.192 114.411 128.134 114.411 126.829C114.411 125.524 113.61 124.466 112.622 124.466C111.634 124.466 110.833 125.524 110.833 126.829C110.833 128.134 111.634 129.192 112.622 129.192Z" fill="black"/>
<path d="M101.207 131.226C102.145 131.827 103.236 132.147 104.35 132.147C105.464 132.147 106.555 131.827 107.493 131.226" stroke="black" stroke-width="1.99223" stroke-miterlimit="10" stroke-linecap="round"/>
<path d="M151.078 57.7753C144.923 59.4365 126.786 43.9206 124.515 40.1772L141.174 37.5374C141.537 39.7322 146.152 52.7766 151.078 57.7753Z" fill="white"/>
<rect x="10" width="229" height="41" rx="13.2816" fill="white"/>
<path d="M31.52 28.3281C35.7847 28.3281 38.3839 26.1074 38.3839 23.1044C38.3839 17.2751 29.4507 18.436 29.4507 15.6601C29.4507 14.8021 30.3592 14.3984 31.3686 14.3984C32.9836 14.3984 33.9426 15.1806 34.2454 16.6947L38.0054 15.6853C37.6016 12.0515 34.5734 11.0169 31.8733 11.0169C28.5675 11.0169 25.2365 12.6067 25.2365 16.291C25.2365 22.2464 34.1697 21.3127 34.1697 23.7353C34.1697 24.5428 33.3369 24.9466 32.1257 24.9466C30.3087 24.9466 29.047 24.1643 28.7442 22.7007L24.757 23.7605C25.287 26.8644 27.8357 28.3281 31.52 28.3281ZM48.316 28.3281C50.7891 28.3281 52.9593 27.7224 54.4229 26.5868L53.8425 23.4577C53.1359 24.0381 51.2181 24.9213 49.0479 24.9213C45.6916 24.9213 44.1018 22.8521 44.1018 19.3949C44.1018 16.0891 45.7925 14.3984 48.1899 14.3984C49.5526 14.3984 50.7891 14.9788 51.2433 16.5181L54.7257 15.5087C54.1958 12.531 51.7732 11.0169 48.2151 11.0169C43.6728 11.0169 39.8623 13.4899 39.8623 19.5968C39.8623 25.527 43.0924 28.3281 48.316 28.3281ZM65.6694 22.9278C68.3948 22.2212 70.1612 20.4295 70.1612 17.2247C70.1612 13.4142 67.8649 11.3449 62.3636 11.3449H56.9886V28H61.1019V23.2558H61.6823C62.7422 25.6279 64.5843 28.2271 70.7921 28.2776L71.0192 24.7952C68.7481 24.7447 66.8807 23.9624 65.6694 22.9278ZM62.5403 14.6759C64.8114 14.6759 65.947 15.5339 65.947 17.4266C65.947 19.3949 64.5843 20.0258 62.3384 20.0258H61.1019V14.6759H62.5403ZM80.7662 28.3281C85.8889 28.3281 89.2199 25.0727 89.2199 19.4201C89.2199 13.9189 86.0403 11.0169 80.8419 11.0169C75.7445 11.0169 72.5396 13.8432 72.5396 19.5463C72.5396 25.3251 75.8454 28.3281 80.7662 28.3281ZM80.8419 24.9213C78.3184 24.9213 76.7791 23.1297 76.7791 19.5211C76.7791 16.0386 78.268 14.3984 80.8672 14.3984C83.4916 14.3984 84.9805 16.0386 84.9805 19.4958C84.9805 23.0287 83.3907 24.9213 80.8419 24.9213ZM95.7507 11.3449H91.6374V28H101.782V24.669H95.7507V11.3449ZM108.27 11.3449H104.156V28H114.301V24.669H108.27V11.3449ZM120.858 11.3449V14.6507H125.905V28H130.019V14.6507H135.04V11.3449H120.858ZM143.952 28.3281C149.075 28.3281 152.406 25.0727 152.406 19.4201C152.406 13.9189 149.226 11.0169 144.028 11.0169C138.93 11.0169 135.726 13.8432 135.726 19.5463C135.726 25.3251 139.031 28.3281 143.952 28.3281ZM144.028 24.9213C141.504 24.9213 139.965 23.1297 139.965 19.5211C139.965 16.0386 141.454 14.3984 144.053 14.3984C146.678 14.3984 148.166 16.0386 148.166 19.4958C148.166 23.0287 146.577 24.9213 144.028 24.9213ZM159.007 11.3449V14.6507H164.054V28H168.167V14.6507H173.189V11.3449H159.007ZM182.1 28.3281C187.223 28.3281 190.554 25.0727 190.554 19.4201C190.554 13.9189 187.374 11.0169 182.176 11.0169C177.079 11.0169 173.874 13.8432 173.874 19.5463C173.874 25.3251 177.18 28.3281 182.1 28.3281ZM182.176 24.9213C179.653 24.9213 178.113 23.1297 178.113 19.5211C178.113 16.0386 179.602 14.3984 182.201 14.3984C184.826 14.3984 186.315 16.0386 186.315 19.4958C186.315 23.0287 184.725 24.9213 182.176 24.9213ZM192.971 11.3449V28H197.085V24.2148H198.599C203.116 24.2148 206.119 22.1203 206.119 17.6032C206.119 13.4394 203.646 11.3449 198.296 11.3449H192.971ZM197.085 20.8585V14.6759H198.473C200.845 14.6759 201.905 15.6601 201.905 17.7546C201.905 19.7986 200.794 20.8585 198.271 20.8585H197.085ZM213.743 22.625L213.844 21.3632C216.973 21.1866 219.32 19.0921 219.32 16.1396C219.32 13.0357 217.074 11.0169 213.263 11.0169C209.907 11.0169 207.762 12.859 207.207 15.5844L210.235 16.4929C210.563 14.9788 211.623 14.3227 213.061 14.3227C214.475 14.3227 215.232 14.9788 215.232 16.291C215.232 17.7546 214.298 18.764 210.816 18.764V22.625H213.743ZM212.229 28.3281C213.465 28.3281 214.475 27.3439 214.475 26.0821C214.475 24.8204 213.465 23.8362 212.229 23.8362C210.992 23.8362 209.983 24.8204 209.983 26.0821C209.983 27.3439 210.992 28.3281 212.229 28.3281Z" fill="#141719"/>
</svg>
