<svg width="15" height="15" viewBox="0 0 15 15" fill="none" xmlns="http://www.w3.org/2000/svg">
<rect width="15" height="15" fill="#F09065"/>
<path d="M0 11.5C1.87261 11.5 3.69935 10.0964 3.69935 8.27572C3.69935 6.45502 1.87266 5 5.26614e-05 5L0.000112977 8.27621C0.000112977 10.0969 0.000250815 10.5 0 11.5Z" fill="#D0846B"/>
<path d="M15 11.4984C13.1279 11.4984 11.3016 10.0951 11.3016 8.2749C11.3016 6.45466 13.1278 5 14.9999 5L14.9999 8.27538C14.9999 10.0956 14.9997 10.4986 15 11.4984Z" fill="#D0846B"/>
<path d="M2.96236 7.47195C3.49386 7.47195 3.92472 6.91859 3.92472 6.23598C3.92472 5.55337 3.49386 5 2.96236 5C2.43086 5 2 5.55337 2 6.23598C2 6.91859 2.43086 7.47195 2.96236 7.47195Z" fill="black"/>
<path d="M12.2978 7.47195C12.8293 7.47195 13.2602 6.91859 13.2602 6.23598C13.2602 5.55337 12.8293 5 12.2978 5C11.7663 5 11.3354 5.55337 11.3354 6.23598C11.3354 6.91859 11.7663 7.47195 12.2978 7.47195Z" fill="black"/>
<path d="M6.16748 8.53418C6.67187 8.84823 7.25826 9.01514 7.85721 9.01514C8.45616 9.01514 9.04256 8.84823 9.54695 8.53418" stroke="black" stroke-miterlimit="10" stroke-linecap="round"/>
</svg>
